<svg xmlns:xlink="http://www.w3.org/1999/xlink" xmlns="http://www.w3.org/2000/svg" viewBox="0 0 58 58" width="58" height="58" class="text-white pointer-events-none"><defs><svg xmlns="http://www.w3.org/2000/svg" viewBox="0 0 59 59" id="icon"><g fill="none" fill-rule="evenodd"><path fill="#794757" fill-rule="nonzero" d="M16.446 14.87h14.368v14.367H16.446zM30.814 29.206h14.368v14.368H30.814z"></path><path d="M34.232 21.484c.538-.285.791-.95.791-2.247 0-1.677-.696-2.468-2.247-2.468h-1.962v10.064h2.057c2.31 0 2.595-1.551 2.595-2.722-.031-1.867-.6-2.374-1.234-2.627m-1.709 4.4h-.411v-3.799h.728c.443 0 .76.095.98.285.317.317.317.886.317 1.583 0 1.93-.696 1.93-1.614 1.93m-.411-8.197h.57c.696 0 1.044 0 1.044 1.583 0 1.867-.791 1.867-1.108 1.867h-.475v-3.45h-.031zM36.29 26.801h1.234V16.769h-1.33V26.8zM41.48 16.769v.063l-.918 5.538-.855-5.538-.031-.063h-1.298v.063l1.646 9.906v.063h1.012v-.063l1.741-9.906.032-.063z" fill="#794757" fill-rule="nonzero"></path><path stroke="#794757" stroke-width=".8" d="M.59 29.206H58M30.695.501v57.41"></path><path fill="#794757" fill-rule="nonzero" d="M18.32 43.2h1.235V33.169h-1.298v10.033zM22.656 33.168h-1.645V43.201h1.297v-4.526h.507c2.025 0 3.101-.95 3.101-2.785.032-1.804-1.076-2.722-3.26-2.722m.253 4.59h-.57v-3.64h.222c1.33 0 2.057.285 2.057 1.867.032 1.456-.633 1.772-1.709 1.772M26.897 43.2h1.234V33.169h-1.297v10.033z"></path></g></svg></defs>
            <use xlink:href="#icon">
          </use></svg>