<svg xmlns:xlink="http://www.w3.org/1999/xlink" id="Group_38" data-name="Group 38" xmlns="http://www.w3.org/2000/svg" width="70.487" height="40.278" viewBox="0 0 70.487 40.278">
  <path id="Path_21" data-name="Path 21" d="M1.215,59.629l1.628,4.438h.014l1.614-4.438h.505L3.116,64.587H2.564L.71,59.629Z" transform="translate(-0.289 -24.309)" fill="#794757"></path>
  <path id="Path_22" data-name="Path 22" d="M13.965,59.629v4.556h2.808v.4H13.486V59.629Z" transform="translate(-5.498 -24.309)" fill="#794757"></path>
  <path id="Path_23" data-name="Path 23" d="M26.3,59.629l1.967,4.958h-.512l-.611-1.541H24.865l-.6,1.541h-.5l2.013-4.958Zm.682,3.014L26.016,60.1l-1,2.542Z" transform="translate(-9.685 -24.309)" fill="#794757"></path>
  <path id="Path_24" data-name="Path 24" d="M38.6,59.629l1.967,4.958h-.512l-.611-1.541H37.157l-.6,1.541h-.505l2.013-4.958Zm.681,3.014L38.308,60.1l-1,2.542Z" transform="translate(-14.696 -24.309)" fill="#794757"></path>
  <path id="Path_25" data-name="Path 25" d="M49.786,59.629l2.92,4.194h.014V59.629H53.2v4.958h-.533l-2.921-4.194h-.014v4.194h-.477V59.629Z" transform="translate(-20.079 -24.309)" fill="#794757"></path>
  <path id="Path_26" data-name="Path 26" d="M64.167,59.629a2.366,2.366,0,0,1,1.725.634,3.23,3.23,0,0,1,0,3.688,2.35,2.35,0,0,1-1.725.634H62.433V59.629Zm-.237,4.554a3.316,3.316,0,0,0,.931-.114,1.412,1.412,0,0,0,1.012-1.011,3.4,3.4,0,0,0,.12-.951,3.3,3.3,0,0,0-.12-.95,1.53,1.53,0,0,0-.371-.646,1.5,1.5,0,0,0-.641-.365,3.338,3.338,0,0,0-.931-.114H62.912v4.152H63.93Z" transform="translate(-25.452 -24.309)" fill="#794757"></path>
  <path id="Path_27" data-name="Path 27" d="M78.841,59.629v.4H75.857v1.792h2.8v.4h-2.8v1.959h3.019v.4h-3.5V59.629Z" transform="translate(-30.73 -24.309)" fill="#794757"></path>
  <path id="Path_28" data-name="Path 28" d="M89.53,59.629a2.21,2.21,0,0,1,.588.076,1.417,1.417,0,0,1,.484.232,1.11,1.11,0,0,1,.329.4,1.283,1.283,0,0,1,.123.581,1.377,1.377,0,0,1-.247.82,1.118,1.118,0,0,1-.731.444V62.2a1.124,1.124,0,0,1,.407.128.812.812,0,0,1,.263.239.984.984,0,0,1,.148.337,2.482,2.482,0,0,1,.059.413c0,.084.009.186.014.3s.014.242.028.365a2.22,2.22,0,0,0,.066.347.655.655,0,0,0,.123.253h-.527a.606.606,0,0,1-.066-.169,1.5,1.5,0,0,1-.035-.209c-.007-.072-.012-.142-.017-.211s-.009-.13-.014-.181c-.009-.177-.024-.351-.044-.525a1.416,1.416,0,0,0-.134-.464.837.837,0,0,0-.294-.331.9.9,0,0,0-.531-.111H87.709v2.2h-.477V59.629Zm-.035,2.353a1.281,1.281,0,0,0,.413-.065,1.036,1.036,0,0,0,.343-.191.944.944,0,0,0,.235-.3.9.9,0,0,0,.086-.407.968.968,0,0,0-.268-.723,1.113,1.113,0,0,0-.815-.265H87.706v1.952Z" transform="translate(-35.562 -24.309)" fill="#794757"></path>
  <path id="Path_29" data-name="Path 29" d="M103.425,59.629v.4h-2.984v1.792h2.8v.4h-2.8v1.959h3.019v.4h-3.5V59.629Z" transform="translate(-40.753 -24.309)" fill="#794757"></path>
  <path id="Path_30" data-name="Path 30" d="M112.342,59.629l2.92,4.194h.014V59.629h.477v4.958h-.533l-2.92-4.194h-.014v4.194h-.477V59.629Z" transform="translate(-45.581 -24.309)" fill="#794757"></path>
  <path id="Path_31" data-name="Path 31" d="M4.437,41.85q3.817,4.211,10.483,4.211a12.674,12.674,0,0,0,8.836-3.116,13.6,13.6,0,0,0,4.288-8.094H21.56a9.481,9.481,0,0,1-1.616,3.53,6.188,6.188,0,0,1-5.119,2.189,6.726,6.726,0,0,1-5.4-2.549A7.951,7.951,0,0,1,8.078,35.6L1.523,36.659A13.887,13.887,0,0,0,4.437,41.85Z" transform="translate(-0.621 -14.208)" fill="#794757"></path>
  <path id="Path_32" data-name="Path 32" d="M6.675,16.143q0-5.12,2.013-7.917a6.426,6.426,0,0,1,5.5-2.8A6.517,6.517,0,0,1,19.36,7.41a8.559,8.559,0,0,1,1.6,3.3h6.527a10.814,10.814,0,0,0-2.138-5.677Q21.741,0,13.942,0a13.038,13.038,0,0,0-9.6,3.757Q0,8.073,0,16.04a24.891,24.891,0,0,0,.174,2.968l6.611-.695A20.451,20.451,0,0,1,6.675,16.143Z" transform="translate(0)" fill="#794757"></path>
  <path id="Path_33" data-name="Path 33" d="M54.31,42.691h6.484V28.661l-6.484.523Z" transform="translate(-22.141 -11.684)" fill="#794757"></path>
  <path id="Path_34" data-name="Path 34" d="M60.794.977H54.31V16.141l6.484-.221Z" transform="translate(-22.141 -0.398)" fill="#794757"></path>
  <path id="Path_35" data-name="Path 35" d="M100.145,27.526a6.864,6.864,0,0,0-3.364-2.588l-21.04,1.7V41.171H89.817a22.088,22.088,0,0,0,4.415-.414,8.727,8.727,0,0,0,3.528-1.526,8.476,8.476,0,0,0,2.214-2.4,8.719,8.719,0,0,0,1.391-4.852A7.921,7.921,0,0,0,100.145,27.526Zm-7.427,7.824a7.542,7.542,0,0,1-3.162.537H81.972V27.775H89.66a8.094,8.094,0,0,1,3.122.516,3.259,3.259,0,0,1,1.99,3.263A3.81,3.81,0,0,1,92.718,35.351Z" transform="translate(-30.877 -10.167)" fill="#794757"></path>
  <path id="Path_36" data-name="Path 36" d="M98.919,13.341a6.667,6.667,0,0,0,1.447-4.48,7.6,7.6,0,0,0-1.433-4.645Q96.55,1.058,90.836.977h-15.1V15.711L96.682,15A7.25,7.25,0,0,0,98.919,13.341Zm-6.052-1.125a6.419,6.419,0,0,1-3.3.753H81.972V6.261h6.795a12.062,12.062,0,0,1,3.691.474,2.717,2.717,0,0,1,1.677,2.807A2.849,2.849,0,0,1,92.866,12.216Z" transform="translate(-30.877 -0.398)" fill="#794757"></path>
</svg>