<?xml version="1.0" encoding="UTF-8"?>
<svg id="Layer_1" xmlns="http://www.w3.org/2000/svg" version="1.1" viewBox="0 0 109.1 64.3">
  <!-- Generator: Adobe Illustrator 29.5.1, SVG Export Plug-In . SVG Version: 2.1.0 Build 141)  -->
  <path d="M23.7,57.9v6.4H0c.7-1.9.8-4.5.8-7.2v-24.1c0-2.6-.1-5.2-.8-7.1h7.9c-.7,1.9-.8,4.5-.8,7.1v26.6h7.4c4.2,0,6.7-.7,9.2-1.7Z" fill="#ffedde"/>
  <path d="M62.3,57.9v6.4h-24.5c.7-1.9.8-4.5.8-7.2v-24.1c0-2.6-.1-5.2-.8-7.1h22.9v6.1c-2.6-1.1-4.8-1.5-9-1.5h-6.8v10.9h12.6v5.6c-1.9-.8-5.1-1-7.7-1h-4.9v13.7h8.2c4.1,0,6.6-.7,9.1-1.7h0Z" fill="#ffedde"/>
  <path d="M95,49.9v7.2c0,2.6.1,5.2.8,7.2h-7.9c.7-1.9.8-4.5.8-7.2v-7.2l-9.5-17.2c-2.3-4.1-3.5-5.7-4.5-6.8h9.1c0,1.1.6,2.9,1.9,5.4l3.9,7.6c1.2,2.4,2.3,4.5,2.9,6.1.5-1.3,1.4-2.9,2.4-4.9l4.5-8.9c1.4-2.7,1.8-4.1,1.8-5.3h7.9c-1.1,1.3-3,3.8-5.1,7.6l-9,16.4h0Z" fill="#ffedde"/>
  <g>
    <path d="M21.6,11.8V.2h1.8v11.6h-1.8Z" fill="#ffedde"/>
    <path d="M33.5,11.8V.2h2.4l3.2,6.6L42.3.2h2.4v11.6h-1.8V2.9l-2.9,6h-1.7l-2.9-6v8.9h-1.8,0Z" fill="#ffedde"/>
    <path d="M54.8,11.8V.2h2.4l3.2,6.6L63.6.2h2.4v11.6h-1.8V2.9l-2.9,6h-1.7l-2.9-6v8.9h-1.8,0Z" fill="#ffedde"/>
    <path d="M81.4,11.9c-.9,0-1.8-.2-2.5-.5-.7-.3-1.3-.8-1.8-1.4s-.8-1.2-1.1-1.9-.4-1.4-.4-2.2.1-1.5.4-2.2.6-1.3,1.1-1.9c.5-.6,1.1-1,1.8-1.4.7-.3,1.5-.5,2.5-.5s1.8.2,2.5.5c.7.3,1.3.8,1.8,1.4s.8,1.2,1.1,1.9c.2.7.4,1.4.4,2.2s-.1,1.5-.4,2.2-.6,1.3-1.1,1.9-1.1,1-1.8,1.4c-.7.3-1.5.5-2.5.5ZM81.4,10.3c.8,0,1.5-.2,2.1-.6.6-.4,1-.9,1.3-1.6.3-.7.4-1.3.4-2.1s0-1.1-.2-1.6-.4-1-.7-1.4-.7-.7-1.2-1-1-.3-1.7-.3-1.2.1-1.6.3-.9.6-1.2,1-.6.9-.7,1.4-.2,1-.2,1.6.1,1.4.4,2.1c.3.7.7,1.2,1.3,1.6.6.4,1.3.6,2.1.6h0Z" fill="#ffedde"/>
  </g>
</svg>