<svg version="1.2" xmlns="http://www.w3.org/2000/svg" viewBox="0 0 64 80" width="64" height="80">
	<title>Vector Smart Object</title>
	<style>
		.s0 { fill: #000000 } 
	</style>
	<filter id="f0">
		<feFlood flood-color="#a8d9d9" flood-opacity="1" />
		<feBlend mode="normal" in2="SourceGraphic"/>
		<feComposite in2="SourceAlpha" operator="in" />
	</filter>
	<g id="Layer 1" filter="url(#f0)">
		<g id="&lt;Group&gt;">
			<path id="&lt;Compound Path&gt;" fill-rule="evenodd" class="s0" d="m10.8 50.3c-4.2-4.9-6.8-11.3-6.8-18.3 0-15.5 12.5-28 28-28 15.5 0 28 12.5 28 28 0 15.5-12.5 28-28 28-7 0-13.4-2.6-18.3-6.8l2.8-2.9c4.2 3.6 9.6 5.7 15.5 5.7 13.2 0 24-10.8 24-24 0-13.2-10.8-24-24-24-13.2 0-24 10.8-24 24 0 5.9 2.1 11.3 5.7 15.5zm15.4-23.2c0.1-0.4 0.5-0.7 0.8-0.9l16-8c0.8-0.4 1.7-0.3 2.4 0.4 0.6 0.6 0.7 1.5 0.3 2.3l-8 16c-0.2 0.3-0.5 0.7-0.9 0.9l-16 8c-0.7 0.3-1.7 0.2-2.3-0.4-0.6-0.6-0.7-1.6-0.3-2.3zm-1.8 12.4l8.2-4.1-4.1-4.1zm6.9-10.9l4.1 4 4-8.1z"/>
		</g>
	</g>
</svg>