<svg version="1.2" xmlns="http://www.w3.org/2000/svg" viewBox="0 0 64 80" width="64" height="80">
	<title>Vector Smart Object</title>
	<style>
		.s0 { fill: #000000 } 
	</style>
	<filter id="f0">
		<feFlood flood-color="#a8d9d9" flood-opacity="1" />
		<feBlend mode="normal" in2="SourceGraphic"/>
		<feComposite in2="SourceAlpha" operator="in" />
	</filter>
	<g id="Layer 1" filter="url(#f0)">
		<g id="&lt;Group&gt;">
			<path id="&lt;Compound Path&gt;" fill-rule="evenodd" class="s0" d="m60 44v4h-4v4h-4v-4h-40v4h-4v-4h-2c-1.1 0-2-0.9-2-2v-32c0-1.1 0.9-2 2-2h8c1.1 0 2 0.9 2 2v6.3q0.9-0.3 2-0.3c1.9 0 4.1 0 6 0 3.3 0 6 2.7 6 6q0 1.1-0.3 2h28.3c1.1 0 2 0.9 2 2v10h-4v-8h-28v12zm-52-28v28h4v-28zm8 16v12h8v-12zm10-6c0-1.1-0.9-2-2-2h-6c-1.1 0-2 0.9-2 2 0 1.1 0.9 2 2 2h6c1.1 0 2-0.9 2-2z"/>
		</g>
	</g>
</svg>