<svg version="1.2" xmlns="http://www.w3.org/2000/svg" viewBox="0 0 100 125" width="100" height="125">
	<title>noun-wall-1359838</title>
	<style>
		.s0 { fill: #a8d9d9 } 
	</style>
	<path class="s0" d="m96.4 77.3v-18.2c0-1.1-0.9-2-2-2h-8.1v-16.2c0-1.1-0.9-2-2-2h-10.1v-16.2c0-1.1-0.9-2-2-2h-66.6c-1.1 0-2 0.9-2 2v54.6c0 1.1 0.9 2 2 2h88.9c1.1 0 2-0.9 2-2zm-14.1-20.2h-18.2v-14.2h18.2zm-74.7-14.2h6.1v14.2h-6.1zm10.1 0h20.2v14.2h-20.3v-14.2zm24.2 14.2v-14.2h18.2v14.2zm-12.1-18.2v-14.2h18.2v14.2zm18.2 22.2v14.2h-18.2v-14.2zm4 0h18.2v14.2h-18.2zm18.2-22.2h-18.2v-14.2h18.2zm-44.4-14.2v14.2h-18.2v-14.2zm-18.2 36.4h18.2v14.2h-18.2zm84.8 14.2h-18.2v-14.2h18.2z"/>
</svg>