<svg version="1.2" xmlns="http://www.w3.org/2000/svg" viewBox="0 0 110 135" width="110" height="135">
	<title>noun-energy-7815959</title>
	<style>
		.s0 { fill: #a8d9d9 } 
	</style>
	<path class="s0" d="m68 12.9c-0.4 0-0.9 0.2-1.1 0.5l-43.2 52.4c-0.4 0.4-0.4 1-0.2 1.6 0.2 0.5 0.8 0.8 1.3 0.8h22.3l-6.6 37c-0.1 0.7 0.2 1.3 0.8 1.6 0.6 0.3 1.3 0.1 1.8-0.4l43.2-52.4c0.4-0.4 0.4-1.1 0.2-1.6-0.2-0.5-0.8-0.8-1.3-0.8h-22.3l6.6-37c0-0.4 0-0.9-0.3-1.2-0.3-0.3-0.7-0.5-1.1-0.5zm-2.4 6.8l-5.9 33.2c0 0.4 0 0.9 0.3 1.2 0.3 0.3 0.7 0.5 1.1 0.5h21l-37.6 45.7 5.9-33.2c0-0.4 0-0.9-0.3-1.2-0.3-0.3-0.7-0.5-1.1-0.5h-21z"/>
</svg>