<svg xmlns:xlink="http://www.w3.org/1999/xlink" xmlns="http://www.w3.org/2000/svg" width="21.875" height="21.875" viewBox="0 0 21.875 21.875">
  <path id="Path_73" data-name="Path 73" d="M10.937-14.99a5.464,5.464,0,0,1,2.808.757A5.632,5.632,0,0,1,15.8-12.183a5.464,5.464,0,0,1,.757,2.808A5.464,5.464,0,0,1,15.8-6.567a5.632,5.632,0,0,1-2.051,2.051,5.464,5.464,0,0,1-2.808.757A5.464,5.464,0,0,1,8.13-4.517,5.632,5.632,0,0,1,6.079-6.567a5.464,5.464,0,0,1-.757-2.808,5.464,5.464,0,0,1,.757-2.808A5.632,5.632,0,0,1,8.13-14.233,5.464,5.464,0,0,1,10.937-14.99Zm0,9.277a3.527,3.527,0,0,0,2.588-1.074A3.527,3.527,0,0,0,14.6-9.375a3.527,3.527,0,0,0-1.074-2.588,3.527,3.527,0,0,0-2.588-1.074A3.527,3.527,0,0,0,8.35-11.963,3.527,3.527,0,0,0,7.275-9.375,3.527,3.527,0,0,0,8.35-6.787,3.527,3.527,0,0,0,10.937-5.713Zm7.178-9.521a1.521,1.521,0,0,1-.415.928,1.189,1.189,0,0,1-.9.391,1.267,1.267,0,0,1-.928-.391,1.267,1.267,0,0,1-.391-.928,1.267,1.267,0,0,1,.391-.928,1.267,1.267,0,0,1,.928-.391,1.267,1.267,0,0,1,.928.391A1.267,1.267,0,0,1,18.115-15.234Zm3.711,1.318q.049,1.367.049,4.541T21.8-4.81a9.209,9.209,0,0,1-.415,2.417A5.691,5.691,0,0,1,20.044-.269,5.691,5.691,0,0,1,17.92,1.074a9.209,9.209,0,0,1-2.417.415q-1.392.073-4.565.073T6.372,1.489a7.973,7.973,0,0,1-2.417-.464A5.2,5.2,0,0,1,1.831-.269,5.691,5.691,0,0,1,.488-2.393,9.209,9.209,0,0,1,.073-4.81Q0-6.2,0-9.375T.073-13.94a9.209,9.209,0,0,1,.415-2.417,5.691,5.691,0,0,1,1.343-2.124,5.691,5.691,0,0,1,2.124-1.343,9.209,9.209,0,0,1,2.417-.415q1.392-.073,4.565-.073t4.565.073a9.209,9.209,0,0,1,2.417.415,5.691,5.691,0,0,1,2.124,1.343,5.691,5.691,0,0,1,1.343,2.124A9.934,9.934,0,0,1,21.826-13.916ZM19.482-2.93a10.281,10.281,0,0,0,.391-2.637q.049-1.074.049-3.027v-1.562q0-2-.049-3.027a9.8,9.8,0,0,0-.391-2.637,3.524,3.524,0,0,0-2.1-2.1,9.8,9.8,0,0,0-2.637-.391q-1.074-.049-3.027-.049H10.156q-1.953,0-3.027.049a10.281,10.281,0,0,0-2.637.391,3.524,3.524,0,0,0-2.1,2.1A9.8,9.8,0,0,0,2-13.184q-.049,1.074-.049,3.027v1.562q0,1.953.049,3.027A10.281,10.281,0,0,0,2.393-2.93a3.7,3.7,0,0,0,2.1,2.1,10.281,10.281,0,0,0,2.637.391q1.074.049,3.027.049h1.562q2,0,3.027-.049A9.8,9.8,0,0,0,17.383-.83,3.7,3.7,0,0,0,19.482-2.93Z" transform="translate(0 20.312)" fill="#3d1a25"></path>
</svg>