<svg xmlns:xlink="http://www.w3.org/1999/xlink" xmlns="http://www.w3.org/2000/svg" width="17.5" height="17.5" viewBox="0 0 17.5 17.5">
  <path id="Path_72" data-name="Path 72" d="M3.906,1.25V-10.43H.273V1.25Zm-1.8-13.281a2.028,2.028,0,0,0,1.484-.625,2.028,2.028,0,0,0,.625-1.484,2.028,2.028,0,0,0-.625-1.484,2.028,2.028,0,0,0-1.484-.625,2.028,2.028,0,0,0-1.484.625A2.028,2.028,0,0,0,0-14.141a2.028,2.028,0,0,0,.625,1.484A2.028,2.028,0,0,0,2.109-12.031ZM17.5,1.25V-5.156a7.9,7.9,0,0,0-.781-3.984,3.877,3.877,0,0,0-3.555-1.6,3.851,3.851,0,0,0-2.187.625,3.122,3.122,0,0,0-1.25,1.289H9.687v-1.6H6.211V1.25H9.8V-4.531A4.361,4.361,0,0,1,10.2-6.6a1.83,1.83,0,0,1,1.758-.937,1.644,1.644,0,0,1,1.68,1.055,6.31,6.31,0,0,1,.234,2.031v5.7Z" transform="translate(0 16.25)" fill="#3d1a25"></path>
</svg>